<svg width="176" height="32" viewBox="0 0 176 32" fill="none" xmlns="http://www.w3.org/2000/svg">
<g opacity="0.8">
<path d="M-1.79036e-06 18.745V5.27945H3.168V6.82176L3.10933 7.77087H3.168C3.872 6.3472 5.51467 4.98285 7.92 4.98285C10.9707 4.98285 12.5547 6.70312 12.5547 10.0843V18.745H9.26933V10.7962C9.26933 9.01658 8.74133 8.06747 7.15733 8.06747C5.39733 8.06747 4.10667 9.13522 3.57867 10.7962C3.40267 11.2707 3.344 11.8639 3.344 12.5758V18.745H-1.79036e-06ZM18.7733 15.0672C19.536 15.8383 20.4747 16.2536 21.5893 16.2536C22.704 16.2536 23.6427 15.8383 24.4053 15.0672C25.168 14.296 25.5787 13.2876 25.5787 12.0419C25.5787 10.8555 25.168 9.84706 24.4053 9.01658C23.6427 8.24543 22.704 7.83019 21.5893 7.83019C20.4747 7.83019 19.536 8.24543 18.7733 9.01658C18.0107 9.78774 17.6 10.7962 17.6 12.0419C17.6587 13.2283 18.0693 14.2367 18.7733 15.0672ZM16.368 17.084C14.96 15.7197 14.256 14.0587 14.256 12.0419C14.256 10.025 14.96 8.30475 16.368 6.99971C17.776 5.63536 19.4773 4.98285 21.5893 4.98285C23.6427 4.98285 25.4027 5.63536 26.8107 6.99971C28.2187 8.30475 28.9227 10.025 28.9227 12.0419C28.9227 14.0587 28.2187 15.779 26.8107 17.084C25.4027 18.3891 23.7013 19.0416 21.5893 19.0416C19.4773 19.0416 17.8347 18.3891 16.368 17.084ZM36.7253 16.2536C38.6027 16.2536 40.0693 14.8299 40.0693 11.9826C40.0693 10.8555 39.776 9.90638 39.1893 9.0759C38.6027 8.24543 37.7813 7.83019 36.784 7.83019C34.9067 7.83019 33.44 9.43182 33.44 11.9826C33.3813 14.5333 34.7307 16.2536 36.7253 16.2536ZM31.7387 6.9404C32.8533 5.63536 34.32 4.98285 36.08 4.98285C38.4267 4.98285 39.4827 6.0506 39.776 6.52516L39.8933 6.70312H39.952C39.952 6.46584 39.952 6.22856 39.952 5.93196V8.83931e-10H43.296V18.745H40.1867V17.6179L40.2453 16.7281H40.1867C40.128 16.8468 40.0693 16.9654 39.6 17.4993C39.0133 18.2111 37.84 18.9823 36.0213 18.9823C34.2027 18.9823 32.7947 18.3298 31.7387 17.0247C30.6827 15.7197 30.1547 13.9994 30.1547 11.9232C30.0373 9.90638 30.624 8.24543 31.7387 6.9404ZM54.56 10.3809C54.56 8.60135 53.3867 7.59291 51.92 7.59291C50.2187 7.59291 49.0453 8.60135 48.752 10.3809H54.56ZM47.1093 6.9404C48.4 5.63536 49.984 4.98285 51.9787 4.98285C53.856 4.98285 55.3227 5.57604 56.32 6.82176C57.376 8.00815 57.904 9.55046 57.904 11.3894L57.8453 12.6944H48.6347C48.8693 14.9485 50.512 16.2536 52.624 16.2536C53.856 16.2536 55.3227 15.6604 55.968 15.1265L56.4373 14.7706L57.728 17.1434C57.6107 17.262 57.4933 17.3806 56.7893 17.8552C55.9093 18.3891 54.384 19.1009 52.3893 19.1009C50.2773 19.1009 48.5173 18.3891 47.168 17.084C45.8773 15.7197 45.232 14.0587 45.232 12.0419C45.232 9.90638 45.8187 8.24543 47.1093 6.9404ZM62.4213 16.2536C63.2427 17.3806 64.3573 17.9738 65.7653 17.9738C67.1147 17.9738 68.1707 17.44 69.0507 16.4315C69.9307 15.3638 70.4 13.9401 70.4 12.1605C70.4 10.3809 69.9893 9.01658 69.1093 7.94883C68.288 6.88108 67.1733 6.3472 65.824 6.3472C63.184 6.3472 61.1893 8.30475 61.1893 12.2198C61.1893 13.7028 61.6 15.1265 62.4213 16.2536ZM60.0747 24.0244V5.57604H61.1893V7.17767L61.1307 8.24543H61.1893C61.248 8.06747 61.3067 7.88951 61.776 7.23699C62.48 6.3472 63.6533 5.33877 65.8827 5.33877C67.584 5.33877 68.9333 5.99128 69.9893 7.23699C70.9867 8.48271 71.5147 10.1437 71.5147 12.2792C71.5147 14.3553 70.9867 16.0163 69.872 17.3213C68.816 18.567 67.408 19.2196 65.7067 19.2196C63.0667 19.2196 61.6587 17.3213 61.3067 16.5502L61.1307 16.2536H61.072C61.1307 16.5502 61.1893 16.9654 61.1893 17.44V24.2024H60.0747V24.0244ZM76.2667 16.3129C77.3813 17.44 78.672 17.9738 80.256 17.9738C81.84 17.9738 83.1307 17.44 84.2453 16.3129C85.36 15.1858 85.888 13.7622 85.888 12.1012C85.888 10.4996 85.36 9.13522 84.2453 8.00815C83.1893 6.88108 81.84 6.3472 80.256 6.3472C78.672 6.3472 77.3813 6.88108 76.2667 8.00815C75.2107 9.13522 74.624 10.4996 74.624 12.1012C74.6827 13.7028 75.2107 15.1858 76.2667 16.3129ZM75.504 7.23699C76.8533 5.93196 78.4373 5.27945 80.3147 5.27945C82.192 5.27945 83.776 5.93196 85.0667 7.23699C86.416 8.54202 87.0613 10.1437 87.0613 12.1012C87.0613 14.0587 86.416 15.7197 85.0667 17.084C83.776 18.4484 82.192 19.1009 80.3147 19.1009C78.4373 19.1009 76.8533 18.3891 75.504 17.084C74.2133 15.7197 73.568 14.0587 73.568 12.1012C73.5093 10.1437 74.1547 8.54202 75.504 7.23699ZM92.224 18.745L87.648 5.57604H88.8214L92.4 15.8977L92.8693 17.3213H92.928L93.3973 15.8977L96.976 5.57604H98.208L101.787 15.8977L102.256 17.3213H102.315C102.432 16.8468 102.608 16.3722 102.784 15.8977L106.363 5.57604H107.536L102.96 18.745H101.787L98.1493 8.48271L97.68 7.05903H97.6213C97.504 7.59291 97.328 8.06747 97.152 8.48271L93.5733 18.745H92.224ZM118.565 10.9148C118.448 7.83019 116.688 6.22856 114.341 6.22856C111.819 6.22856 109.707 7.94883 109.237 10.9148H118.565ZM109.941 7.11835C111.173 5.87264 112.699 5.22013 114.459 5.22013C116.16 5.22013 117.451 5.81332 118.389 6.9404C119.328 8.06747 119.797 9.49114 119.797 11.2114L119.739 11.9232H109.296C109.296 13.7622 109.824 15.2451 110.88 16.3129C111.936 17.3806 113.285 17.9145 114.869 17.9145C116.336 17.9145 117.861 17.2027 118.448 16.6688L118.917 16.2536L119.504 17.2027C119.387 17.3213 119.152 17.4993 118.917 17.7366C118.683 17.9145 118.155 18.2111 117.333 18.5077C116.512 18.8636 115.691 18.9823 114.869 18.9823C112.992 18.9823 111.349 18.3298 110.059 17.084C108.768 15.779 108.123 14.1181 108.123 12.1012C108.064 10.025 108.709 8.36407 109.941 7.11835ZM122.437 18.745V5.57604H123.552V8.06747L123.435 9.13522H123.493C124.197 6.99971 125.723 5.4574 127.659 5.4574L128.421 5.51672V6.6438C128.187 6.6438 128.011 6.58448 127.835 6.58448C125.957 6.58448 124.549 8.12679 123.963 10.2623C123.728 11.0928 123.552 12.0419 123.552 13.0503V18.745H122.437Z" transform="translate(47.5781)" fill="#1E1E1E"/>
<path d="M60.016 25.6104C59.8987 25.4917 59.7227 25.6104 59.7227 25.6697C59.7227 25.729 59.664 25.729 59.664 25.7883C55.6747 30.4746 48.2827 31.5423 43.12 28.0425C39.5413 25.6697 37.7813 21.5173 35.9627 17.7802C34.2027 14.1617 32.6187 10.3652 30.624 6.80606C29.5093 4.96715 27.984 3.42484 26.1653 2.29777C23.408 0.577496 20.24 0.221578 17.072 0.0436194C13.6693 -0.0750198 10.0907 -0.0157002 6.80533 1.05205C4.048 2.00117 1.81867 3.78076 0.0586667 6.0349C0.0586667 6.09422 8.74201e-10 6.09422 8.74201e-10 6.15354C8.74201e-10 6.27218 0.117333 6.3315 0.176 6.3315C0.234667 6.3315 0.293333 6.3315 0.293333 6.27218C0.469333 6.09422 0.645333 5.91626 0.762667 5.79762C1.34933 5.26375 1.936 4.72987 2.52267 4.31463C3.81333 3.36552 5.33867 2.65368 6.92267 2.23845C9.97333 1.46729 13.2587 1.82321 16.016 3.3062C20.064 5.50102 22 9.77204 23.936 13.6871C25.7547 17.4243 27.3973 21.28 29.392 24.9579C30.3893 26.7374 31.856 28.2204 33.5573 29.3475C36.3147 31.1864 39.4827 31.661 42.7093 31.8389C46.1707 32.0169 49.808 31.9576 53.152 30.8898C55.968 30 58.256 28.1611 60.0747 25.907C60.1333 25.7883 60.1333 25.6697 60.016 25.6104Z" transform="translate(0 0.0839844)" fill="#1E1E1E"/>
</g>
</svg>
