<svg width="36" height="36" viewBox="0 0 36 36" fill="none" xmlns="http://www.w3.org/2000/svg">
<path d="M3.60203 7.20696C5.58794 7.20696 7.20696 5.59083 7.20696 3.60348C7.20696 2.81898 6.9503 2.09466 6.52542 1.50302C5.8707 0.595264 4.80633 6.52736e-07 3.60421 6.52736e-07C2.40136 6.52736e-07 1.33771 0.594538 0.681546 1.5023C0.255219 2.09393 0.000727492 2.81826 2.44555e-06 3.60276C-0.00217269 5.59011 1.61541 7.20696 3.60203 7.20696Z" transform="translate(14.3965 14.3965)" fill="#2B1977"/>
<path d="M3.4708 3.47007V0.449529V2.76583e-08L3.01909 0.00145002L5.42103e-07 0.010876L0.0116004 3.48167L3.4708 3.47007Z" transform="translate(22.3965 10.1191)" fill="#2B1977"/>
<path d="M18 0C8.07484 0 0 8.07484 0 18C0 27.9244 8.07484 36 18 36C27.9244 36 36 27.9244 36 18C36 8.07484 27.9259 0 18 0ZM28.2369 15.8995V24.2811C28.2369 26.4642 26.462 28.2384 24.2803 28.2384H11.7196C9.53726 28.2384 7.76307 26.4642 7.76307 24.2811V15.8995V11.7204C7.76307 9.53798 9.53726 7.7638 11.7196 7.7638H24.2796C26.462 7.7638 28.2369 9.53798 28.2369 11.7204V15.8995Z" fill="#2B1977"/>
<path d="M13.8426 2.10046C13.8426 5.18698 11.331 7.69999 8.24305 7.69999C5.15508 7.69999 2.64424 5.18698 2.64424 2.10046C2.64424 1.35801 2.79215 0.648192 3.05607 6.19547e-07H-1.60418e-07V8.38154C-1.60418e-07 9.46476 0.879481 10.3421 1.96198 10.3421H14.522C15.603 10.3421 16.4839 9.46476 16.4839 8.38154V6.19547e-07H13.4264C13.6925 0.648192 13.8426 1.35801 13.8426 2.10046Z" transform="translate(9.75781 15.9004)" fill="#2B1977"/>
</svg>
