<svg width="13" height="20" viewBox="0 0 13 20" fill="none" xmlns="http://www.w3.org/2000/svg">
<path d="M4.80305 19.8325L4.80192 19.832C4.5555 19.7348 4.41484 19.469 4.47098 19.1984L4.47105 19.1984L4.4718 19.194L5.81299 11.3373L5.83774 11.1922L5.69063 11.1912L0.699371 11.1568H0.698508C0.476532 11.1568 0.281204 11.0306 0.182486 10.8302C0.0852953 10.633 0.113264 10.3927 0.251846 10.2239L0.251873 10.2239L0.253688 10.2216L7.97798 0.349349C7.97802 0.349308 7.97805 0.349267 7.97808 0.349226C8.1478 0.134029 8.42507 0.0668436 8.65782 0.178006C8.897 0.292233 9.03486 0.563525 8.98006 0.81381L8.98 0.813797L8.97927 0.817694L7.67204 7.84742L7.64476 7.99413L7.79398 7.99527L12.3099 8.02973H12.3108C12.5154 8.02973 12.7126 8.15574 12.8116 8.34237C12.9086 8.52519 12.8939 8.76628 12.7706 8.93315L12.7705 8.93309L12.7678 8.93702L5.48463 19.6194L5.48461 19.6194L5.48343 19.6212C5.37243 19.7902 5.1925 19.875 5.01069 19.875C4.94316 19.875 4.8742 19.8614 4.80305 19.8325ZM2.02612 9.80915L1.86971 10.0092L2.1236 10.0111L6.50369 10.0456H6.50467C6.67308 10.0456 6.82167 10.1164 6.91477 10.2379L6.91456 10.238L6.91995 10.2442C7.02857 10.3682 7.07194 10.5362 7.04347 10.7099C7.04346 10.71 7.04344 10.7101 7.04343 10.7102L6.10977 16.2576L6.33638 16.3487L11.073 9.38789L11.2052 9.19358L10.9702 9.19257L6.94661 9.17534H6.94608C6.78698 9.17534 6.63332 9.09482 6.51597 8.96198C6.40376 8.81827 6.36243 8.64847 6.39013 8.47765L7.34058 3.3963L7.11924 3.29631L2.02612 9.80915Z" fill="black" stroke="white" stroke-width="0.25"/>
</svg>
