<svg width="61" height="32" viewBox="0 0 61 32" fill="none" xmlns="http://www.w3.org/2000/svg">
<path d="M60.016 25.6104C59.8987 25.4917 59.7227 25.6104 59.7227 25.6697C59.7227 25.729 59.664 25.729 59.664 25.7883C55.6747 30.4746 48.2827 31.5423 43.12 28.0425C39.5413 25.6697 37.7813 21.5173 35.9627 17.7802C34.2027 14.1617 32.6187 10.3652 30.624 6.80606C29.5093 4.96715 27.984 3.42484 26.1653 2.29777C23.408 0.577496 20.24 0.221578 17.072 0.0436194C13.6693 -0.0750198 10.0907 -0.0157002 6.80533 1.05205C4.048 2.00117 1.81867 3.78076 0.0586667 6.0349C0.0586667 6.09422 8.74201e-10 6.09422 8.74201e-10 6.15354C8.74201e-10 6.27218 0.117333 6.3315 0.176 6.3315C0.234667 6.3315 0.293333 6.3315 0.293333 6.27218C0.469333 6.09422 0.645333 5.91626 0.762667 5.79762C1.34933 5.26375 1.936 4.72987 2.52267 4.31463C3.81333 3.36552 5.33867 2.65368 6.92267 2.23845C9.97333 1.46729 13.2587 1.82321 16.016 3.3062C20.064 5.50102 22 9.77204 23.936 13.6871C25.7547 17.4243 27.3973 21.28 29.392 24.9579C30.3893 26.7374 31.856 28.2204 33.5573 29.3475C36.3147 31.1864 39.4827 31.661 42.7093 31.8389C46.1707 32.0169 49.808 31.9576 53.152 30.8898C55.968 30 58.256 28.1611 60.0747 25.907C60.1333 25.7883 60.1333 25.6697 60.016 25.6104Z" transform="translate(0 0.0839844)" fill="#1E1E1E"/>
</svg>
